<?xml version="1.0" encoding="UTF-8"?>
<svg version="1.1" xmlns="http://www.w3.org/2000/svg" width="91" height="91">
<path d="M0 0 C30.03 0 60.06 0 91 0 C91 30.03 91 60.06 91 91 C60.97 91 30.94 91 0 91 C0 60.97 0 30.94 0 0 Z " fill="#432627" transform="translate(0,0)"/>
<path d="M0 0 C3.96 0 7.92 0 12 0 C12 11.22 12 22.44 12 34 C16.95 34 21.9 34 27 34 C27 30.04 27 26.08 27 22 C31.29 22 35.58 22 40 22 C40 18.37 40 14.74 40 11 C44.62 11 49.24 11 54 11 C54 22.22 54 33.44 54 45 C58.29 45 62.58 45 67 45 C67 56.88 67 68.76 67 81 C36.97 81 6.94 81 -24 81 C-24 76.71 -24 72.42 -24 68 C-11.79 68 0.42 68 13 68 C12.67 60.74 12.34 53.48 12 46 C8.04 45.67 4.08 45.34 0 45 C0 30.15 0 15.3 0 0 Z " fill="#090606" transform="translate(24,10)"/>
<path d="M0 0 C4.29 0 8.58 0 13 0 C13 11.22 13 22.44 13 34 C17.29 34 21.58 34 26 34 C27 35 27 35 27.11352539 37.13305664 C27.10828857 38.04949951 27.10305176 38.96594238 27.09765625 39.91015625 C27.09515869 40.800979 27.09266113 41.69180176 27.09008789 42.60961914 C27.08098389 43.74906982 27.07187988 44.88852051 27.0625 46.0625 C27.041875 49.671875 27.02125 53.28125 27 57 C14.79 57 2.58 57 -10 57 C-10 49.41 -10 41.82 -10 34 C-6.7 34 -3.4 34 0 34 C0 22.78 0 11.56 0 0 Z " fill="#6B1F1E" transform="translate(10,21)"/>
<path d="M0 0 C13.53 0 27.06 0 41 0 C41 3.63 41 7.26 41 11 C36.38 11 31.76 11 27 11 C27 14.63 27 18.26 27 22 C22.71 22 18.42 22 14 22 C14 25.96 14 29.92 14 34 C9.38 34 4.76 34 0 34 C0 22.78 0 11.56 0 0 Z " fill="#87141B" transform="translate(37,10)"/>
<path d="M0 0 C4.62 0 9.24 0 14 0 C14 7.59 14 15.18 14 23 C18.62 23 23.24 23 28 23 C28 26.63 28 30.26 28 34 C18.76 34 9.52 34 0 34 C0 22.78 0 11.56 0 0 Z " fill="#646E74" transform="translate(51,44)"/>
<path d="M0 0 C4.29 0 8.58 0 13 0 C13 11.22 13 22.44 13 34 C8.71 34 4.42 34 0 34 C0 22.78 0 11.56 0 0 Z " fill="#757370" transform="translate(10,21)"/>
<path d="M0 0 C3.96 0 7.92 0 12 0 C12 11.22 12 22.44 12 34 C8.04 34 4.08 34 0 34 C0 22.78 0 11.56 0 0 Z " fill="#767470" transform="translate(79,21)"/>
<path d="M0 0 C2.97 0 5.94 0 9 0 C9 14.85 9 29.7 9 45 C6.03 45 3.06 45 0 45 C0 30.15 0 15.3 0 0 Z " fill="#020101" transform="translate(0,10)"/>
<path d="M0 0 C5.39346988 -0.02464849 10.78690725 -0.04283531 16.18041992 -0.05493164 C18.01668875 -0.05997231 19.85295354 -0.06680477 21.68920898 -0.07543945 C24.32276401 -0.08751672 26.95626616 -0.09323081 29.58984375 -0.09765625 C30.41588608 -0.10281754 31.24192841 -0.10797882 32.09300232 -0.11329651 C34.06236368 -0.11349205 36.03161614 -0.06204152 38 0 C39 1 39 1 39.09765625 2.84765625 C39.06510417 4.8984375 39.03255208 6.94921875 39 9 C26.04745583 10.4683046 13.01285012 10.09470779 0 10 C0 6.7 0 3.4 0 0 Z " fill="#A8151C" transform="translate(38,11)"/>
<path d="M0 0 C13.53 0 27.06 0 41 0 C41 2.97 41 5.94 41 9 C27.47 9 13.94 9 0 9 C0 6.03 0 3.06 0 0 Z " fill="#050101" transform="translate(37,0)"/>
<path d="M0 0 C7.92 0 15.84 0 24 0 C24 3.63 24 7.26 24 11 C16.08 11 8.16 11 0 11 C0 7.37 0 3.74 0 0 Z " fill="#E4691E" transform="translate(0,67)"/>
<path d="M0 0 C3.3 0 6.6 0 10 0 C10 6.6 10 13.2 10 20 C6.37 20 2.74 20 -1 20 C-1.02689449 17.04160645 -1.04678741 14.08345573 -1.0625 11.125 C-1.07087891 10.28324219 -1.07925781 9.44148438 -1.08789062 8.57421875 C-1.09111328 7.76855469 -1.09433594 6.96289062 -1.09765625 6.1328125 C-1.10289307 5.38918457 -1.10812988 4.64555664 -1.11352539 3.87939453 C-1 2 -1 2 0 0 Z " fill="#A9181E" transform="translate(25,57)"/>
<path d="M0 0 C0.33 0 0.66 0 1 0 C1 7.59 1 15.18 1 23 C5.62 23 10.24 23 15 23 C15 26.63 15 30.26 15 34 C10.05 34 5.1 34 0 34 C0 22.78 0 11.56 0 0 Z " fill="#8C2328" transform="translate(64,44)"/>
<path d="M0 0 C4.29 0 8.58 0 13 0 C13 3.96 13 7.92 13 12 C8.71 12 4.42 12 0 12 C0 8.04 0 4.08 0 0 Z " fill="#A7AAAC" transform="translate(10,21)"/>
<path d="M0 0 C3.96 0 7.92 0 12 0 C12 3.96 12 7.92 12 12 C8.04 12 4.08 12 0 12 C0 8.04 0 4.08 0 0 Z " fill="#A8ADB0" transform="translate(79,21)"/>
<path d="M0 0 C4.29 0 8.58 0 13 0 C13 3.63 13 7.26 13 11 C8.71 11 4.42 11 0 11 C0 7.37 0 3.74 0 0 Z " fill="#767372" transform="translate(10,10)"/>
<path d="M0 0 C13.53 0 27.06 0 41 0 C41 3.63 41 7.26 41 11 C36.38 11 31.76 11 27 11 C27 10.67 27 10.34 27 10 C31.29 10 35.58 10 40 10 C39.505 6.04 39.505 6.04 39 2 C26.46 1.67 13.92 1.34 1 1 C1.33 11.23 1.66 21.46 2 32 C5.3 31.67 8.6 31.34 12 31 C12.495 26.545 12.495 26.545 13 22 C13.33 22 13.66 22 14 22 C14 25.96 14 29.92 14 34 C9.38 34 4.76 34 0 34 C0 22.78 0 11.56 0 0 Z " fill="#7C2126" transform="translate(37,10)"/>
<path d="M0 0 C3.96 0 7.92 0 12 0 C12 3.63 12 7.26 12 11 C8.04 11 4.08 11 0 11 C0 7.37 0 3.74 0 0 Z " fill="#050202" transform="translate(79,10)"/>
<path d="M0 0 C4.29 0 8.58 0 13 0 C13 3.3 13 6.6 13 10 C8.71 10 4.42 10 0 10 C0 6.7 0 3.4 0 0 Z " fill="#0D0101" transform="translate(10,56)"/>
<path d="M0 0 C3.96 0 7.92 0 12 0 C12 2.97 12 5.94 12 9 C8.04 9 4.08 9 0 9 C0 6.03 0 3.06 0 0 Z " fill="#C5CBD0" transform="translate(79,0)"/>
<path d="M0 0 C3.96 0 7.92 0 12 0 C12 2.97 12 5.94 12 9 C8.04 9 4.08 9 0 9 C0 6.03 0 3.06 0 0 Z " fill="#A51D22" transform="translate(24,0)"/>
<path d="M0 0 C3.96 0 7.92 0 12 0 C12 2.97 12 5.94 12 9 C8.04 9 4.08 9 0 9 C0 6.03 0 3.06 0 0 Z " fill="#070100" transform="translate(11,0)"/>
<path d="M0 0 C2.97 0 5.94 0 9 0 C9.33 3.63 9.66 7.26 10 11 C6.7 11 3.4 11 0 11 C0 7.37 0 3.74 0 0 Z " fill="#AD1F1F" transform="translate(0,56)"/>
<path d="M0 0 C4.95 0 9.9 0 15 0 C15 3.63 15 7.26 15 11 C7.08 11 -0.84 11 -9 11 C-9 10.34 -9 9.68 -9 9 C-1.74 9 5.52 9 13 9 C13 6.69 13 4.38 13 2 C12.01 2.33 11.02 2.66 10 3 C8.26675881 2.91538508 6.53607188 2.76395645 4.8125 2.5625 C3.91144531 2.46066406 3.01039062 2.35882813 2.08203125 2.25390625 C1.39496094 2.17011719 0.70789062 2.08632812 0 2 C0 1.34 0 0.68 0 0 Z " fill="#CA6938" transform="translate(9,67)"/>
<path d="M0 0 C2.97 0 5.94 0 9 0 C9 2.97 9 5.94 9 9 C6.03 9 3.06 9 0 9 C0 6.03 0 3.06 0 0 Z " fill="#CA504A" transform="translate(0,0)"/>
<path d="M0 0 C4.62 0 9.24 0 14 0 C10.99382731 3.00617269 8.17618402 2.59585316 4 3 C3.34 5.97 2.68 8.94 2 12 C-2.62 12 -7.24 12 -12 12 C-12 15.63 -12 19.26 -12 23 C-12.33 23 -12.66 23 -13 23 C-13 19.04 -13 15.08 -13 11 C-8.71 11 -4.42 11 0 11 C0 7.37 0 3.74 0 0 Z " fill="#2E0506" transform="translate(64,21)"/>
<path d="M0 0 C0.33 0 0.66 0 1 0 C1 2.31 1 4.62 1 7 C2.03060547 6.98259766 2.03060547 6.98259766 3.08203125 6.96484375 C3.98308594 6.95582031 4.88414063 6.94679688 5.8125 6.9375 C6.70582031 6.92589844 7.59914063 6.91429687 8.51953125 6.90234375 C11 7 11 7 14 8 C14 8.66 14 9.32 14 10 C9.38 10 4.76 10 0 10 C0 6.7 0 3.4 0 0 Z " fill="#1C0304" transform="translate(65,57)"/>
<path d="M0 0 C4.62 0 9.24 0 14 0 C14 2.97 14 5.94 14 9 C13.67 9 13.34 9 13 9 C13 6.69 13 4.38 13 2 C12.01 2.33 11.02 2.66 10 3 C8.26675881 2.91538508 6.53607188 2.76395645 4.8125 2.5625 C3.91144531 2.46066406 3.01039062 2.35882813 2.08203125 2.25390625 C1.39496094 2.17011719 0.70789062 2.08632812 0 2 C0 1.34 0 0.68 0 0 Z " fill="#DE7236" transform="translate(9,67)"/>
</svg>
